<svg xmlns="http://www.w3.org/2000/svg" xmlns:xlink="http://www.w3.org/1999/xlink" width="300" zoomAndPan="magnify" viewBox="0 0 224.87999 225" height="300" preserveAspectRatio="xMidYMid meet" version="1.2"><defs><clipPath id="1c78f66e8f"><path d="M 48.898438 182.023438 L 124.386719 182.023438 L 124.386719 221.789062 L 48.898438 221.789062 Z M 48.898438 182.023438 "/></clipPath><clipPath id="9229ae7274"><path d="M 153.421875 94.027344 L 175.96875 94.027344 L 175.96875 115.46875 L 153.421875 115.46875 Z M 153.421875 94.027344 "/></clipPath><clipPath id="6100e5bb57"><path d="M 153.421875 71.246094 L 175.96875 71.246094 L 175.96875 92.6875 L 153.421875 92.6875 Z M 153.421875 71.246094 "/></clipPath><clipPath id="7517f6ed09"><path d="M 67 2.90625 L 165 2.90625 L 165 83 L 67 83 Z M 67 2.90625 "/></clipPath><clipPath id="991aa93f23"><path d="M 153.421875 48.019531 L 175.96875 48.019531 L 175.96875 69.90625 L 153.421875 69.90625 Z M 153.421875 48.019531 "/></clipPath><clipPath id="ee38c7e3cd"><path d="M 153.421875 116.808594 L 175.96875 116.808594 L 175.96875 138.25 L 153.421875 138.25 Z M 153.421875 116.808594 "/></clipPath><clipPath id="f213e97d8d"><path d="M 67.703125 147.917969 L 82.828125 147.917969 L 82.828125 161.132812 L 67.703125 161.132812 Z M 67.703125 147.917969 "/></clipPath><clipPath id="1b2aed00be"><path d="M 75.253906 147.917969 L 82.808594 161.132812 L 67.703125 161.132812 Z M 75.253906 147.917969 "/></clipPath><clipPath id="53b781602a"><path d="M 0.703125 0.917969 L 15.828125 0.917969 L 15.828125 14.132812 L 0.703125 14.132812 Z M 0.703125 0.917969 "/></clipPath><clipPath id="a4c9a6b36d"><path d="M 8.253906 0.917969 L 15.808594 14.132812 L 0.703125 14.132812 Z M 8.253906 0.917969 "/></clipPath><clipPath id="5410cd97e6"><rect x="0" width="16" y="0" height="15"/></clipPath></defs><g id="521b92d4b7"><g clip-rule="nonzero" clip-path="url(#1c78f66e8f)"><path style=" stroke:none;fill-rule:nonzero;fill:#8b0000;fill-opacity:1;" d="M 120.914062 202.648438 L 119.835938 202.289062 L 59.550781 182.414062 C 57.09375 181.601562 54.414062 182.933594 53.5625 185.378906 L 48.898438 198.851562 L 119.316406 222.078125 L 123.929688 208.730469 C 124.351562 207.523438 124.269531 206.21875 123.699219 205.058594 C 123.144531 203.9375 122.125 203.058594 120.914062 202.648438 "/></g><g clip-rule="nonzero" clip-path="url(#9229ae7274)"><path style=" stroke:none;fill-rule:nonzero;fill:#8b0000;fill-opacity:1;" d="M 167.835938 94.128906 C 166.058594 94.128906 164.273438 94.703125 162.777344 95.898438 L 156.558594 100.851562 C 153.058594 103.644531 152.480469 108.769531 155.273438 112.273438 C 158.066406 115.777344 163.1875 116.355469 166.695312 113.5625 L 172.910156 108.605469 C 176.414062 105.8125 176.996094 100.691406 174.199219 97.1875 C 172.597656 95.175781 170.226562 94.128906 167.835938 94.128906 "/></g><g clip-rule="nonzero" clip-path="url(#6100e5bb57)"><path style=" stroke:none;fill-rule:nonzero;fill:#8b0000;fill-opacity:1;" d="M 167.835938 71.285156 C 166.058594 71.285156 164.273438 71.863281 162.777344 73.054688 L 156.558594 78.011719 C 153.058594 80.804688 152.480469 85.929688 155.273438 89.433594 C 158.066406 92.933594 163.1875 93.515625 166.695312 90.722656 L 172.910156 85.765625 C 176.414062 82.972656 176.996094 77.847656 174.199219 74.34375 C 172.597656 72.332031 170.226562 71.285156 167.835938 71.285156 "/></g><path style=" stroke:none;fill-rule:nonzero;fill:#8b0000;fill-opacity:1;" d="M 146.78125 85.441406 L 146.78125 75.300781 L 143.222656 75.300781 L 143.222656 83.660156 L 134.863281 83.660156 L 134.863281 87.21875 L 145 87.21875 C 145.984375 87.21875 146.78125 86.421875 146.78125 85.441406 "/><path style=" stroke:none;fill-rule:nonzero;fill:#8b0000;fill-opacity:1;" d="M 84.691406 85.441406 C 84.691406 86.421875 85.488281 87.21875 86.46875 87.21875 L 96.605469 87.21875 L 96.605469 83.660156 L 88.25 83.660156 L 88.25 75.300781 L 84.691406 75.300781 L 84.691406 85.441406 "/><path style=" stroke:none;fill-rule:nonzero;fill:#8b0000;fill-opacity:1;" d="M 146.78125 26.90625 C 146.78125 25.925781 145.984375 25.125 145 25.125 L 134.863281 25.125 L 134.863281 28.6875 L 143.222656 28.6875 L 143.222656 37.042969 L 146.78125 37.042969 L 146.78125 26.90625 "/><path style=" stroke:none;fill-rule:nonzero;fill:#8b0000;fill-opacity:1;" d="M 84.691406 26.90625 L 84.691406 37.042969 L 88.25 37.042969 L 88.25 28.6875 L 96.605469 28.6875 L 96.605469 25.125 L 86.46875 25.125 C 85.488281 25.125 84.691406 25.925781 84.691406 26.90625 "/><path style=" stroke:none;fill-rule:nonzero;fill:#8b0000;fill-opacity:1;" d="M 125.070312 35.605469 L 135.738281 35.605469 L 135.738281 46.273438 L 125.070312 46.273438 Z M 121.511719 49.835938 L 139.296875 49.835938 L 139.296875 32.046875 L 121.511719 32.046875 L 121.511719 49.835938 "/><path style=" stroke:none;fill-rule:nonzero;fill:#8b0000;fill-opacity:1;" d="M 95.683594 35.558594 L 106.445312 35.558594 L 106.445312 46.320312 L 95.683594 46.320312 Z M 92.222656 49.789062 L 109.910156 49.789062 L 109.910156 32.097656 L 92.222656 32.097656 L 92.222656 49.789062 "/><path style=" stroke:none;fill-rule:nonzero;fill:#8b0000;fill-opacity:1;" d="M 106.445312 76.769531 L 95.683594 76.769531 L 95.683594 66.007812 L 106.445312 66.007812 Z M 109.910156 62.542969 L 92.222656 62.542969 L 92.222656 80.234375 L 109.910156 80.234375 L 109.910156 62.542969 "/><path style=" stroke:none;fill-rule:nonzero;fill:#8b0000;fill-opacity:1;" d="M 117.46875 31.933594 L 114 31.933594 L 114 39.183594 L 117.46875 39.183594 L 117.46875 31.933594 "/><path style=" stroke:none;fill-rule:nonzero;fill:#8b0000;fill-opacity:1;" d="M 114 80.410156 L 117.46875 80.410156 L 117.46875 73.351562 L 114 73.351562 L 114 80.410156 "/><path style=" stroke:none;fill-rule:nonzero;fill:#8b0000;fill-opacity:1;" d="M 91.5 57.90625 L 99.105469 57.90625 L 99.105469 54.4375 L 91.5 54.4375 L 91.5 57.90625 "/><path style=" stroke:none;fill-rule:nonzero;fill:#8b0000;fill-opacity:1;" d="M 114 54.4375 L 103.03125 54.4375 L 103.03125 57.90625 L 114 57.90625 L 114 69.425781 L 117.46875 69.425781 L 117.46875 57.90625 L 128.441406 57.90625 L 128.441406 54.4375 L 117.46875 54.4375 L 117.46875 43.109375 L 114 43.109375 L 114 54.4375 "/><path style=" stroke:none;fill-rule:nonzero;fill:#8b0000;fill-opacity:1;" d="M 139.972656 54.4375 L 132.367188 54.4375 L 132.367188 57.90625 L 139.972656 57.90625 L 139.972656 54.4375 "/><path style=" stroke:none;fill-rule:nonzero;fill:#8b0000;fill-opacity:1;" d="M 130.304688 62.429688 L 121.496094 62.429688 L 121.496094 71.238281 L 125.808594 71.238281 L 125.808594 66.742188 L 130.304688 66.742188 L 130.304688 62.429688 "/><path style=" stroke:none;fill-rule:nonzero;fill:#8b0000;fill-opacity:1;" d="M 139.296875 66.742188 L 139.296875 62.429688 L 134.984375 62.429688 L 134.984375 66.742188 L 139.296875 66.742188 "/><path style=" stroke:none;fill-rule:nonzero;fill:#8b0000;fill-opacity:1;" d="M 130.488281 71.238281 L 134.800781 71.238281 L 134.800781 66.925781 L 130.488281 66.925781 L 130.488281 71.238281 "/><path style=" stroke:none;fill-rule:nonzero;fill:#8b0000;fill-opacity:1;" d="M 130.304688 75.738281 L 130.304688 71.421875 L 125.992188 71.421875 L 125.992188 75.738281 L 130.304688 75.738281 "/><path style=" stroke:none;fill-rule:nonzero;fill:#8b0000;fill-opacity:1;" d="M 121.496094 80.234375 L 125.808594 80.234375 L 125.808594 75.917969 L 121.496094 75.917969 L 121.496094 80.234375 "/><path style=" stroke:none;fill-rule:nonzero;fill:#8b0000;fill-opacity:1;" d="M 139.296875 71.421875 L 134.984375 71.421875 L 134.984375 75.917969 L 130.488281 75.917969 L 130.488281 80.234375 L 139.296875 80.234375 L 139.296875 71.421875 "/><path style=" stroke:none;fill-rule:nonzero;fill:#8b0000;fill-opacity:1;" d="M 113.691406 130.75 C 113.710938 130.75 113.730469 130.753906 113.746094 130.753906 C 114.433594 130.851562 115.109375 130.894531 115.816406 130.894531 C 116.457031 130.894531 117.097656 130.851562 117.714844 130.773438 C 125.4375 129.832031 131.261719 123.242188 131.261719 115.449219 C 131.261719 115.140625 131.25 114.839844 131.234375 114.539062 C 131.175781 113.53125 130.304688 112.753906 129.300781 112.820312 C 128.289062 112.882812 127.523438 113.75 127.582031 114.757812 C 127.597656 114.984375 127.601562 115.214844 127.601562 115.449219 C 127.601562 121.394531 123.160156 126.421875 117.253906 127.144531 C 116.25 127.273438 115.203125 127.265625 114.199219 127.125 C 114.183594 127.125 114.164062 127.121094 114.148438 127.121094 C 108.371094 126.300781 104.019531 121.292969 104.019531 115.449219 C 104.019531 108.945312 109.3125 103.65625 115.816406 103.65625 C 116.894531 103.65625 117.96875 103.800781 119.003906 104.097656 C 119.972656 104.375 120.988281 103.8125 121.265625 102.839844 C 121.539062 101.867188 120.976562 100.855469 120.003906 100.578125 C 118.640625 100.191406 117.234375 99.996094 115.816406 99.996094 C 107.292969 99.996094 100.363281 106.925781 100.363281 115.449219 C 100.363281 123.125 106.09375 129.703125 113.691406 130.75 "/><path style=" stroke:none;fill-rule:nonzero;fill:#8b0000;fill-opacity:1;" d="M 130.941406 100.320312 C 130.148438 99.695312 129 99.835938 128.375 100.628906 L 115.679688 116.808594 L 112.109375 112.332031 C 111.480469 111.542969 110.328125 111.414062 109.535156 112.046875 C 108.746094 112.675781 108.617188 113.828125 109.25 114.617188 L 114.265625 120.894531 C 114.613281 121.332031 115.136719 121.585938 115.695312 121.585938 C 115.695312 121.585938 115.699219 121.585938 115.703125 121.585938 C 116.261719 121.582031 116.785156 121.324219 117.132812 120.886719 L 131.253906 102.886719 C 131.875 102.09375 131.738281 100.945312 130.941406 100.320312 "/><path style=" stroke:none;fill-rule:nonzero;fill:#8b0000;fill-opacity:1;" d="M 92.203125 157.175781 C 91.453125 144.507812 86.929688 134.984375 78.394531 130.539062 C 74.796875 128.65625 72.710938 124.84375 73.097656 120.84375 L 75.144531 100.121094 C 75.933594 94.261719 72.816406 85.753906 67.464844 83.050781 C 66.648438 82.636719 65.820312 82.382812 65.003906 82.273438 C 64.859375 82.25 64.695312 82.234375 64.523438 82.234375 C 62.757812 82.234375 61.246094 83.558594 61.003906 85.324219 L 54.53125 134.664062 C 54.503906 134.875 52 148.777344 55.679688 159.851562 C 56.9375 163.640625 58.34375 165.820312 59.574219 167.746094 C 61.632812 170.957031 63.265625 173.523438 62.917969 180.695312 L 119.171875 199.25 C 120.601562 191.035156 125.5 186.820312 130.648438 182.367188 C 133.726562 179.71875 136.910156 176.960938 139.640625 173.164062 C 142.570312 169.070312 144.519531 164.441406 145.644531 160.519531 L 92.132812 160.519531 L 92.203125 157.175781 "/><g clip-rule="nonzero" clip-path="url(#7517f6ed09)"><path style=" stroke:none;fill-rule:nonzero;fill:#8b0000;fill-opacity:1;" d="M 71.25 82.433594 L 71.25 13.875 C 71.25 9.847656 74.542969 6.570312 78.570312 6.570312 L 153.070312 6.570312 C 157.097656 6.570312 160.386719 9.847656 160.386719 13.875 L 160.386719 48.695312 L 161.335938 47.949219 L 164.039062 45.835938 L 164.039062 13.875 C 164.039062 7.828125 159.117188 2.90625 153.070312 2.90625 L 78.570312 2.90625 C 72.523438 2.90625 67.597656 7.828125 67.597656 13.875 L 67.597656 80.226562 C 67.960938 80.363281 68.320312 80.484375 68.683594 80.667969 C 69.605469 81.136719 70.460938 81.738281 71.25 82.433594 "/></g><g clip-rule="nonzero" clip-path="url(#991aa93f23)"><path style=" stroke:none;fill-rule:nonzero;fill:#8b0000;fill-opacity:1;" d="M 156.558594 55.167969 C 153.058594 57.964844 152.480469 63.085938 155.273438 66.589844 C 158.066406 70.09375 163.1875 70.671875 166.695312 67.878906 L 172.910156 62.925781 C 176.414062 60.128906 176.996094 55.007812 174.199219 51.503906 C 172.597656 49.492188 170.226562 48.445312 167.835938 48.445312 C 166.058594 48.445312 164.273438 49.023438 162.777344 50.210938 L 156.558594 55.167969 "/></g><path style=" stroke:none;fill-rule:nonzero;fill:#8b0000;fill-opacity:1;" d="M 160.386719 146.714844 C 160.386719 150.742188 157.097656 154.035156 153.070312 154.035156 L 95.277344 154.035156 C 95.25 154.035156 95.222656 154.035156 95.199219 154.046875 L 95.410156 157.6875 L 153.070312 157.6875 C 159.117188 157.6875 164.039062 152.761719 164.039062 146.714844 L 164.039062 140.949219 L 160.386719 140.949219 L 160.386719 146.714844 "/><g clip-rule="nonzero" clip-path="url(#ee38c7e3cd)"><path style=" stroke:none;fill-rule:nonzero;fill:#8b0000;fill-opacity:1;" d="M 168.757812 117.015625 C 168.445312 116.980469 168.136719 116.964844 167.828125 116.964844 C 166 116.964844 164.234375 117.578125 162.777344 118.738281 L 156.558594 123.695312 C 153.058594 126.488281 152.480469 131.609375 155.273438 135.117188 C 158.066406 138.617188 163.1875 139.195312 166.695312 136.402344 L 172.910156 131.449219 C 176.414062 128.65625 176.996094 123.53125 174.199219 120.027344 C 172.847656 118.332031 170.914062 117.261719 168.757812 117.015625 "/></g><g clip-rule="nonzero" clip-path="url(#f213e97d8d)"><g clip-rule="nonzero" clip-path="url(#1b2aed00be)"><g transform="matrix(1,0,0,1,67,147)"><g clip-path="url(#5410cd97e6)"><g clip-rule="nonzero" clip-path="url(#53b781602a)"><g clip-rule="nonzero" clip-path="url(#a4c9a6b36d)"><path style=" stroke:none;fill-rule:nonzero;fill:#8b0000;fill-opacity:1;" d="M 0.703125 0.917969 L 15.828125 0.917969 L 15.828125 14.132812 L 0.703125 14.132812 Z M 0.703125 0.917969 "/></g></g></g></g></g></g></g></svg>